<svg xmlns="http://www.w3.org/2000/svg" viewBox="0 0 32 32" width="32" height="32">
  <rect width="32" height="32" fill="#1a1f2e" rx="4"/>
  <g fill="#7dd3fc">
    <!-- Tree structure representing ARG (Ancestral Recombination Graph) -->
    <circle cx="16" cy="8" r="1.5"/>
    <line x1="16" y1="8" x2="12" y2="14" stroke="#7dd3fc" stroke-width="1.5"/>
    <line x1="16" y1="8" x2="20" y2="14" stroke="#7dd3fc" stroke-width="1.5"/>
    <circle cx="12" cy="14" r="1.2"/>
    <circle cx="20" cy="14" r="1.2"/>
    <line x1="12" y1="14" x2="8" y2="20" stroke="#7dd3fc" stroke-width="1.5"/>
    <line x1="12" y1="14" x2="16" y2="20" stroke="#7dd3fc" stroke-width="1.5"/>
    <line x1="20" y1="14" x2="16" y2="20" stroke="#7dd3fc" stroke-width="1.5"/>
    <line x1="20" y1="14" x2="24" y2="20" stroke="#7dd3fc" stroke-width="1.5"/>
    <circle cx="8" cy="20" r="1"/>
    <circle cx="16" cy="20" r="1"/>
    <circle cx="24" cy="20" r="1"/>
    <!-- Additional nodes at bottom -->
    <line x1="8" y1="20" x2="6" y2="25" stroke="#7dd3fc" stroke-width="1"/>
    <line x1="8" y1="20" x2="10" y2="25" stroke="#7dd3fc" stroke-width="1"/>
    <line x1="16" y1="20" x2="14" y2="25" stroke="#7dd3fc" stroke-width="1"/>
    <line x1="16" y1="20" x2="18" y2="25" stroke="#7dd3fc" stroke-width="1"/>
    <line x1="24" y1="20" x2="22" y2="25" stroke="#7dd3fc" stroke-width="1"/>
    <line x1="24" y1="20" x2="26" y2="25" stroke="#7dd3fc" stroke-width="1"/>
    <circle cx="6" cy="25" r="0.8"/>
    <circle cx="10" cy="25" r="0.8"/>
    <circle cx="14" cy="25" r="0.8"/>
    <circle cx="18" cy="25" r="0.8"/>
    <circle cx="22" cy="25" r="0.8"/>
    <circle cx="26" cy="25" r="0.8"/>
  </g>
</svg> 